<?xml version="1.0" encoding="UTF-8"?>
<svg id="Ebene_1" data-name="Ebene 1" xmlns="http://www.w3.org/2000/svg" viewBox="0 0 1119.11 453.02">
  <defs>
    <style>
      .cls-1 {
        fill: #2355f5;
      }
    </style>
  </defs>
  <path class="cls-1" d="M172.27,268.68c15.16-31.51,34.1-49.41,52.55-49.41s37.39,17.91,52.54,49.41c-13.67,13.32-32.18,21.53-52.55,21.53s-38.87-8.21-52.55-21.53M224.82,135.12c41.97,0,76.11,34.79,76.11,77.54,0,10.1-1.93,19.74-5.39,28.6-19.45-33.05-44.04-50.95-70.72-50.95h0c-26.67,0-51.27,17.91-70.72,50.95-3.46-8.86-5.39-18.5-5.39-28.59,0-42.76,34.14-77.54,76.11-77.54M343.47,346.75l-32.32-73.49c11.8-17.21,18.74-38.1,18.74-60.6,0-58.72-47.13-106.5-105.06-106.5s-105.06,47.78-105.06,106.5c0,22.5,6.94,43.38,18.74,60.6l-32.32,73.49h31.64l22.16-50.39c17.87,14.26,40.39,22.8,64.85,22.8s46.98-8.54,64.85-22.8l22.16,50.39h31.64Z"/>
  <g>
    <path class="cls-1" d="M534.64,301.92l-12.26-36.13h-56.5l-12.04,36.13h-32.41l56.28-150.89h32.85l56.06,150.89h-31.97ZM474.86,239.28h38.54l-19.27-57.16-19.27,57.16Z"/>
    <path class="cls-1" d="M848.03,301.92l-12.26-36.13h-56.5l-12.04,36.13h-32.41l56.28-150.89h32.85l56.06,150.89h-31.97ZM788.24,239.28h38.54l-19.27-57.16-19.27,57.16Z"/>
    <path class="cls-1" d="M977.24,301.92l-35.92-54.09h-10.29v54.09h-30.44v-150.89h60.22c34.6,0,49.49,24.53,49.49,49.27,0,21.46-15.11,42.49-36.35,46.21l38.98,55.41h-35.7ZM931.03,177.97v45.33h24.31c17.08,0,24.31-10.29,24.31-22.34s-7.66-22.99-21.9-22.99h-26.72Z"/>
    <path class="cls-1" d="M725.17,226.58c0-42.92-34.16-78.18-76.87-78.18s-76.65,35.26-76.65,78.18,33.73,77.96,76.65,77.96c10.73,0,20.92-2.23,30.17-6.24l14.19,32.31h31.64l-21.56-49.02c13.89-14.15,22.44-33.65,22.44-55.01ZM602.09,226.58c0-27.16,19.05-49.49,46.21-49.49s46.21,22.34,46.21,49.49-19.27,49.27-46.21,49.27-46.21-22.12-46.21-49.27Z"/>
  </g>
</svg>